<?xml version="1.0" encoding="UTF-8" standalone="no"?>
<!DOCTYPE svg PUBLIC "-//W3C//DTD SVG 1.1//EN" "http://www.w3.org/Graphics/SVG/1.1/DTD/svg11.dtd">
<svg version="1.1" xmlns="http://www.w3.org/2000/svg" xmlns:xlink="http://www.w3.org/1999/xlink" preserveAspectRatio="xMidYMid meet" viewBox="0 0 135 135" width="135" height="135"><defs><path d="M135 67.5C135 104.76 104.75 135 67.5 135C30.24 135 0 104.76 0 67.5C0 30.25 30.24 0 67.5 0C104.75 0 135 30.25 135 67.5Z" id="duFehMuA7"/><path d="M26.51 53.04C25.09 48.79 24.27 43.93 26.35 39.96C28.02 36.76 31.3 34.71 34.63 33.31C37.95 31.91 41.63 30.99 45.16 31.69C45.32 32.08 44.84 32.4 44.44 32.53C39.83 34.11 34.87 36.27 32.79 40.69C30.93 44.65 31.95 49.34 33.41 53.47C35.61 59.64 38.71 65.44 41.14 71.53C42.4 74.71 43.49 78 43.85 81.4C44.21 84.8 43.81 88.36 42.23 91.39C41.15 93.49 39.54 95.27 37.75 96.81C33.29 100.66 27.59 103.05 21.72 103.54C20.8 103.62 19.7 103.57 19.19 102.8C22.87 101.42 26.54 99.89 29.72 97.58C32.9 95.28 35.59 92.12 36.68 88.34C37.76 84.67 37.25 80.7 36.24 77.01C33.96 68.68 29.24 61.23 26.51 53.04Z" id="a4kN6xsfIO"/><path d="M26.51 53.04C25.09 48.79 24.27 43.93 26.35 39.96C28.02 36.76 31.3 34.71 34.63 33.31C37.95 31.91 41.63 30.99 45.16 31.69C45.32 32.08 44.84 32.4 44.44 32.53C39.83 34.11 34.87 36.27 32.79 40.69C30.93 44.65 31.95 49.34 33.41 53.47C35.61 59.64 38.71 65.44 41.14 71.53C42.4 74.71 43.49 78 43.85 81.4C44.21 84.8 43.81 88.36 42.23 91.39C41.15 93.49 39.54 95.27 37.75 96.81C33.29 100.66 27.59 103.05 21.72 103.54C20.8 103.62 19.7 103.57 19.19 102.8C22.87 101.42 26.54 99.89 29.72 97.58C32.9 95.28 35.59 92.12 36.68 88.34C37.76 84.67 37.25 80.7 36.24 77.01C33.96 68.68 29.24 61.23 26.51 53.04Z" id="e1oksHc7fZ"/><path d="M55.78 38.84C54.19 41.08 53.66 43.95 53.86 46.69C54.05 49.43 54.92 52.08 55.91 54.65C58.24 60.69 61.3 66.44 63.59 72.5C65.62 77.86 67.03 83.86 65.12 89.25C63.16 94.77 58.09 98.6 52.79 101.08C49.11 102.81 44.91 104.05 41.02 102.88C44.54 101.44 48.09 99.97 51.23 97.82C54.37 95.67 57.11 92.76 58.42 89.19C60.03 84.77 59.28 79.83 57.86 75.34C55.26 67.16 50.53 59.76 48.13 51.51C47.11 48 46.55 44.13 47.96 40.75C49.71 36.54 54.1 34.06 58.4 32.53C61.33 31.49 64.59 30.74 67.5 31.83C66.39 32.3 65.28 32.78 64.17 33.25C61.04 34.6 57.76 36.06 55.78 38.84Z" id="ae0CAcqrL"/><path d="M55.78 38.84C54.19 41.08 53.66 43.95 53.86 46.69C54.05 49.43 54.92 52.08 55.91 54.65C58.24 60.69 61.3 66.44 63.59 72.5C65.62 77.86 67.03 83.86 65.12 89.25C63.16 94.77 58.09 98.6 52.79 101.08C49.11 102.81 44.91 104.05 41.02 102.88C44.54 101.44 48.09 99.97 51.23 97.82C54.37 95.67 57.11 92.76 58.42 89.19C60.03 84.77 59.28 79.83 57.86 75.34C55.26 67.16 50.53 59.76 48.13 51.51C47.11 48 46.55 44.13 47.96 40.75C49.71 36.54 54.1 34.06 58.4 32.53C61.33 31.49 64.59 30.74 67.5 31.83C66.39 32.3 65.28 32.78 64.17 33.25C61.04 34.6 57.76 36.06 55.78 38.84Z" id="iXA9aVgV9"/><path d="M80.45 88.86C81.79 85 81.29 80.73 80.21 76.78C77.76 67.83 72.47 59.88 69.95 50.95C69.17 48.18 68.66 45.24 69.33 42.45C70.32 38.29 73.83 35.08 77.75 33.36C81.68 31.65 86.02 31.2 90.29 30.82C91.88 30.68 93.49 30.54 95.07 30.73C99.25 31.2 102.87 33.82 105.9 36.73C112.58 43.16 117.42 51.64 118.8 60.81C120.18 69.98 117.92 79.78 112.08 86.97C108 92 102.37 95.61 96.36 98.01C90.35 100.42 83.95 101.68 77.54 102.58C72.91 103.23 68.14 103.7 63.62 102.5C67.05 101.05 70.51 99.57 73.55 97.42C76.59 95.27 79.24 92.39 80.45 88.86M105.43 84.04C109.42 77.66 110.76 69.82 109.86 62.36C108.43 50.44 101.26 39.34 90.98 33.13C90.35 32.75 89.68 32.38 88.94 32.33C88.27 32.29 87.63 32.51 87 32.75C83.03 34.21 78.87 36.24 76.93 40C74.91 43.94 75.84 48.72 77.27 52.9C79.49 59.38 82.78 65.43 85.28 71.8C87.51 77.47 89.08 83.89 86.88 89.57C84.65 95.3 79.06 98.98 73.49 101.6C79.7 100.7 85.86 99.12 91.46 96.3C97.07 93.48 102.11 89.36 105.43 84.04Z" id="f1swCobVT"/><path d="M80.45 88.86C81.79 85 81.29 80.73 80.21 76.78C77.76 67.83 72.47 59.88 69.95 50.95C69.17 48.18 68.66 45.24 69.33 42.45C70.32 38.29 73.83 35.08 77.75 33.36C81.68 31.65 86.02 31.2 90.29 30.82C91.88 30.68 93.49 30.54 95.07 30.73C99.25 31.2 102.87 33.82 105.9 36.73C112.58 43.16 117.42 51.64 118.8 60.81C120.18 69.98 117.92 79.78 112.08 86.97C108 92 102.37 95.61 96.36 98.01C90.35 100.42 83.95 101.68 77.54 102.58C72.91 103.23 68.14 103.7 63.62 102.5C67.05 101.05 70.51 99.57 73.55 97.42C76.59 95.27 79.24 92.39 80.45 88.86M105.43 84.04C109.42 77.66 110.76 69.82 109.86 62.36C108.43 50.44 101.26 39.34 90.98 33.13C90.35 32.75 89.68 32.38 88.94 32.33C88.27 32.29 87.63 32.51 87 32.75C83.03 34.21 78.87 36.24 76.93 40C74.91 43.94 75.84 48.72 77.27 52.9C79.49 59.38 82.78 65.43 85.28 71.8C87.51 77.47 89.08 83.89 86.88 89.57C84.65 95.3 79.06 98.98 73.49 101.6C79.7 100.7 85.86 99.12 91.46 96.3C97.07 93.48 102.11 89.36 105.43 84.04Z" id="a3l5TXvx0"/></defs><g><g><g><use xlink:href="#duFehMuA7" opacity="1" fill="#ffffff" fill-opacity="1"/></g><g><use xlink:href="#a4kN6xsfIO" opacity="1" fill="#035496" fill-opacity="1"/><g><use xlink:href="#a4kN6xsfIO" opacity="1" fill-opacity="0" stroke="#000000" stroke-width="1" stroke-opacity="0"/></g></g><g><use xlink:href="#e1oksHc7fZ" opacity="1" fill="#000000" fill-opacity="0"/><g><use xlink:href="#e1oksHc7fZ" opacity="1" fill-opacity="0" stroke="#000000" stroke-width="0" stroke-opacity="0"/></g></g><g><use xlink:href="#ae0CAcqrL" opacity="1" fill="#057cde" fill-opacity="1"/><g><use xlink:href="#ae0CAcqrL" opacity="1" fill-opacity="0" stroke="#000000" stroke-width="1" stroke-opacity="0"/></g></g><g><use xlink:href="#iXA9aVgV9" opacity="1" fill="#000000" fill-opacity="0"/><g><use xlink:href="#iXA9aVgV9" opacity="1" fill-opacity="0" stroke="#000000" stroke-width="1" stroke-opacity="0"/></g></g><g><use xlink:href="#f1swCobVT" opacity="1" fill="#59b1f9" fill-opacity="1"/><g><use xlink:href="#f1swCobVT" opacity="1" fill-opacity="0" stroke="#000000" stroke-width="1" stroke-opacity="0"/></g></g><g><use xlink:href="#a3l5TXvx0" opacity="1" fill="#000000" fill-opacity="0"/><g><use xlink:href="#a3l5TXvx0" opacity="1" fill-opacity="0" stroke="#000000" stroke-width="1" stroke-opacity="0"/></g></g></g></g></svg>